<?xml version="1.0" encoding="UTF-8"?>
<svg width="12px" height="10px" viewBox="0 0 12 10" version="1.1" xmlns="http://www.w3.org/2000/svg" xmlns:xlink="http://www.w3.org/1999/xlink">
    <!-- Generator: Sketch 52 (66869) - http://www.bohemiancoding.com/sketch -->
    <title>日期</title>
    <desc>Created with Sketch.</desc>
    <g id="Page-1" stroke="none" stroke-width="1" fill="none" fill-rule="evenodd">
        <g id="Orders-Order-History02" transform="translate(-269.000000, -112.000000)">
            <g id="Order-History" transform="translate(10.000000, 58.000000)">
                <g id="Bar" transform="translate(0.000000, 40.000000)">
                    <g id="日期" transform="translate(257.000000, 11.000000)">
                        <rect id="Rectangle" fill="#000000" opacity="0" x="0" y="0" width="16" height="16"></rect>
                        <path d="M6,4 L10,4 L10,3.33333333 L11.3333333,3.33333333 L11.3333333,4 L13.3333333,4 L13.3333333,12.6666667 L2.66666667,12.6666667 L2.66666667,4 L4.66666667,4 L4.66666667,3.33333333 L6,3.33333333 L6,4 Z M12,5.33333333 L4,5.33333333 L4,11.3333333 L12,11.3333333 L12,5.33333333 Z M6.66666667,6.66666667 L6.66666667,8 L5.33333333,8 L5.33333333,6.66666667 L6.66666667,6.66666667 Z M8.66666667,6.66666667 L8.66666667,8 L7.33333333,8 L7.33333333,6.66666667 L8.66666667,6.66666667 Z M10.6666667,6.66666667 L10.6666667,8 L9.33333333,8 L9.33333333,6.66666667 L10.6666667,6.66666667 Z M6.66666667,8.66666667 L6.66666667,10 L5.33333333,10 L5.33333333,8.66666667 L6.66666667,8.66666667 Z M8.66666667,8.66666667 L8.66666667,10 L7.33333333,10 L7.33333333,8.66666667 L8.66666667,8.66666667 Z M10.6666667,8.66666667 L10.6666667,10 L9.33333333,10 L9.33333333,8.66666667 L10.6666667,8.66666667 Z" id="Shape" fill="#444444" fill-rule="nonzero"></path>
                    </g>
                </g>
            </g>
        </g>
    </g>
</svg>