<?xml version="1.0" encoding="UTF-8"?>
<svg width="95px" height="93px" viewBox="0 0 95 93" version="1.1" xmlns="http://www.w3.org/2000/svg" xmlns:xlink="http://www.w3.org/1999/xlink">
    <!-- Generator: Sketch 52.6 (67491) - http://www.bohemiancoding.com/sketch -->
    <title>空icon</title>
    <desc>Created with Sketch.</desc>
    <g id="Page-1" stroke="none" stroke-width="1" fill="none" fill-rule="evenodd" opacity="0.400000006">
        <g id="空状态" transform="translate(-593.000000, -502.000000)">
            <g id="空icon" transform="translate(593.000000, 502.000000)">
                <path d="M7.5,22 L7.5,22 C11.6421356,22 15,25.3578644 15,29.5 L15,37 L0,37 L0,29.5 C-5.07265313e-16,25.3578644 3.35786438,22 7.5,22 Z" id="Rectangle" fill="#617C8E"></path>
                <path d="M71.9979514,78.3103448 L80,78.3103448 L80,93 L22.7837838,93 C18.4252122,93 14.3,89.4923826 14.3,85.1655172 L14.3,29.8344828 C14.3,25.5076174 11.3585715,22 7,22 L63.5141676,22 C67.8727391,22 71.9979514,25.5076174 71.9979514,29.8344828 L71.9979514,78.3103448 Z" id="Path" fill="#9DB3C1"></path>
                <path d="M27,41 L59,41 C59.5522847,41 60,41.4477153 60,42 L60,45 C60,45.5522847 59.5522847,46 59,46 L27,46 C26.4477153,46 26,45.5522847 26,45 L26,42 C26,41.4477153 26.4477153,41 27,41 Z" id="Rectangle" fill="#617C8E"></path>
                <path d="M27,53 L59,53 C59.5522847,53 60,53.4477153 60,54 L60,57 C60,57.5522847 59.5522847,58 59,58 L27,58 C26.4477153,58 26,57.5522847 26,57 L26,54 C26,53.4477153 26.4477153,53 27,53 Z" id="Rectangle" fill="#617C8E"></path>
                <path d="M27,68 L42,68 C42.5522847,68 43,68.4477153 43,69 L43,72 C43,72.5522847 42.5522847,73 42,73 L27,73 C26.4477153,73 26,72.5522847 26,72 L26,69 C26,68.4477153 26.4477153,68 27,68 Z" id="Rectangle" fill="#617C8E"></path>
                <path d="M21,92.9835977 C21.1652618,92.9944753 21.3319857,93 21.5,93 C25.6421356,93 29,89.6421356 29,85.5 L29,78 L72,78 L87,78 L87,85.5 C87,89.4741213 83.9090159,92.7263047 80,92.9835977 L80,93 L21,93 L21,92.9835977 Z" id="Combined-Shape" fill="#617C8E"></path>
                <path d="M64,0 L67,0 C67.5522847,-1.01453063e-16 68,0.44771525 68,1 L68,14 C68,14.5522847 67.5522847,15 67,15 L64,15 C63.4477153,15 63,14.5522847 63,14 L63,1 C63,0.44771525 63.4477153,1.01453063e-16 64,0 Z" id="Rectangle" fill="#617C8E"></path>
                <path d="M86,17 L89,17 C89.5522847,17 90,17.4477153 90,18 L90,31 C90,31.5522847 89.5522847,32 89,32 L86,32 C85.4477153,32 85,31.5522847 85,31 L85,18 C85,17.4477153 85.4477153,17 86,17 Z" id="Rectangle" fill="#617C8E" transform="translate(87.500000, 24.500000) rotate(-270.000000) translate(-87.500000, -24.500000) "></path>
                <path d="M78,5 L81,5 C81.5522847,5 82,5.44771525 82,6 L82,19 C82,19.5522847 81.5522847,20 81,20 L78,20 C77.4477153,20 77,19.5522847 77,19 L77,6 C77,5.44771525 77.4477153,5 78,5 Z" id="Rectangle" fill="#617C8E" transform="translate(79.500000, 12.500000) rotate(-315.000000) translate(-79.500000, -12.500000) "></path>
            </g>
        </g>
    </g>
</svg>