<?xml version="1.0" encoding="UTF-8"?>
<svg width="149px" height="34px" viewBox="0 0 149 34" version="1.1" xmlns="http://www.w3.org/2000/svg" xmlns:xlink="http://www.w3.org/1999/xlink">
    <!-- Generator: Sketch 52 (66869) - http://www.bohemiancoding.com/sketch -->
    <title>LOGO</title>
    <desc>Created with Sketch.</desc>
    <g id="Page-1" stroke="none" stroke-width="1" fill="none" fill-rule="evenodd">
        <g id="下拉2" transform="translate(-332.000000, -7750.000000)">
            <g id="Copyright" transform="translate(0.000000, 7679.000000)">
                <g id="Group-7" transform="translate(332.000000, 71.000000)">
                    <g id="LOGO">
                        <path d="M39.3483685,14.9402612 C39.3483685,14.2770359 39.4908041,13.6414544 39.7756795,13.0334978 C40.0605548,12.4255412 40.464888,11.89589 40.9886911,11.4445283 C41.5124942,10.9931666 42.1465621,10.6293192 42.8909139,10.3529753 C43.6352656,10.0766314 44.4760948,9.93846154 45.4134267,9.93846154 C46.2772423,9.93846154 47.0629352,10.0766314 47.7705288,10.3529753 C48.4781225,10.6293192 49.0892169,11.0161949 49.6038305,11.5136139 C50.118444,12.011033 50.5135878,12.5959521 50.7892737,13.268389 C51.0649595,13.9408258 51.2028004,14.6731262 51.2028004,15.465312 L48.0324291,15.465312 C48.0324291,14.6915491 47.8026943,14.0836016 47.3432179,13.6414514 C46.8837415,13.1993011 46.2404842,12.9782293 45.4134267,12.9782293 C44.5863692,12.9782293 43.9431119,13.1808785 43.4836355,13.5861829 C43.0241591,13.9914873 42.7944243,14.4336309 42.7944243,14.912627 C42.7944243,15.428469 43.0149697,15.8245559 43.456067,16.1008999 C43.8971644,16.3772438 44.4485278,16.6259495 45.1101738,16.8470247 C45.7718198,17.0680998 46.4931869,17.2983829 47.2742968,17.537881 C48.0554067,17.777379 48.7767738,18.0997754 49.4384198,18.5050798 C50.1000658,18.9103842 50.6514292,19.4400354 51.0925266,20.0940493 C51.5336239,20.7480633 51.7541693,21.6001109 51.7541693,22.6502177 C51.7541693,23.2765972 51.6025443,23.8845447 51.2992899,24.4740784 C50.9960355,25.063612 50.5687288,25.5932633 50.0173572,26.0630479 C49.4659855,26.5328325 48.7997547,26.9104969 48.0186448,27.1960522 C47.237535,27.4816076 46.3691376,27.6243832 45.4134267,27.6243832 C44.4393367,27.6243832 43.5709393,27.4862133 42.8082085,27.2098694 C42.0454777,26.9335255 41.3976257,26.5420441 40.8646331,26.0354136 C40.3316405,25.5287831 39.9227126,24.930047 39.6378372,24.2391872 C39.3529619,23.5483275 39.2105263,22.7883931 39.2105263,21.9593614 L42.5187398,21.9593614 C42.5187398,22.7331243 42.7760428,23.3641001 43.2906563,23.8523077 C43.8052699,24.3405153 44.5128529,24.5846154 45.4134267,24.5846154 C46.3875166,24.5846154 47.1134785,24.3773606 47.5913339,23.9628447 C48.0691894,23.5483288 48.3081135,23.0647343 48.3081135,22.5120464 C48.3081135,21.9777816 48.0875682,21.5632719 47.6464708,21.2685051 C47.2053735,20.9737382 46.6540101,20.7112155 45.992364,20.4809289 C45.330718,20.2506423 44.6093509,20.0249648 43.828241,19.8038897 C43.0471312,19.5828146 42.325764,19.2788408 41.664118,18.8919594 C41.002472,18.5050779 40.4511086,18.0030607 40.0100113,17.3858926 C39.5689139,16.7687245 39.3483685,15.9535222 39.3483685,14.9402612 Z M56.0558403,21.1303338 C56.0558403,22.1804407 56.3590902,23.0186713 56.965599,23.6450508 C57.5721079,24.2714303 58.3256379,24.5846154 59.2262116,24.5846154 C60.1267854,24.5846154 60.8803153,24.2714303 61.4868242,23.6450508 C62.093333,23.0186713 62.3965829,22.1804407 62.3965829,21.1303338 C62.3965829,20.080227 62.093333,19.2419964 61.4868242,18.6156168 C60.8803153,17.9892373 60.1267854,17.6760522 59.2262116,17.6760522 C58.3256379,17.6760522 57.5721079,17.9892373 56.965599,18.6156168 C56.3590902,19.2419964 56.0558403,20.080227 56.0558403,21.1303338 Z M65.5669542,21.1303338 C65.5669542,22.0330572 65.3969505,22.8758935 65.056938,23.6588679 C64.7169254,24.4418423 64.2574559,25.1280861 63.6785156,25.7176197 C63.0995754,26.3071534 62.4287499,26.7723253 61.6660191,27.1131495 C60.9032883,27.4539736 60.0900272,27.6243832 59.2262116,27.6243832 C58.362396,27.6243832 57.549135,27.4539736 56.7864041,27.1131495 C56.0236733,26.7723253 55.3528478,26.3071534 54.7739076,25.7176197 C54.1949673,25.1280861 53.7354978,24.4418423 53.3954853,23.6588679 C53.0554727,22.8758935 52.885469,22.0330572 52.885469,21.1303338 C52.885469,20.2276104 53.0554727,19.3847741 53.3954853,18.6017997 C53.7354978,17.8188253 54.1949673,17.1325816 54.7739076,16.5430479 C55.3528478,15.9535142 56.0236733,15.4883423 56.7864041,15.1475181 C57.549135,14.806694 58.362396,14.6362845 59.2262116,14.6362845 C60.0900272,14.6362845 60.9032883,14.806694 61.6660191,15.1475181 C62.4287499,15.4883423 63.0995754,15.9535142 63.6785156,16.5430479 C64.2574559,17.1325816 64.7169254,17.8188253 65.056938,18.6017997 C65.3969505,19.3847741 65.5669542,20.2276104 65.5669542,21.1303338 Z M73.3432429,14.6362845 C74.1335423,14.6362845 74.8870723,14.7974827 75.6038555,15.1198839 C76.3206387,15.4422851 76.9501119,15.8936401 77.492294,16.4739623 C78.0344762,17.0542845 78.4663775,17.7405282 78.788011,18.5327141 C79.1096445,19.3248999 79.2704588,20.1907645 79.2704588,21.1303338 C79.2704588,22.0699031 79.1096445,22.9357677 78.788011,23.7279536 C78.4663775,24.5201394 78.0344762,25.2063832 77.492294,25.7867054 C76.9501119,26.3670276 76.3206387,26.8183825 75.6038555,27.1407837 C74.8870723,27.463185 74.1335423,27.6243832 73.3432429,27.6243832 C72.8102503,27.6243832 72.3461861,27.5599039 71.9510364,27.4309434 C71.5558867,27.3019829 71.2112845,27.163813 70.9172197,27.0164296 C70.5863966,26.8322003 70.2923362,26.6203399 70.0350294,26.3808418 L70.0350294,31.9076923 L66.8646581,31.9076923 L66.8646581,14.7744557 L69.7593449,14.7744557 L69.7593449,16.0179971 C70.0350308,15.7600761 70.3566594,15.529793 70.7242405,15.3271408 C71.0366845,15.1613344 71.4134495,15.0047419 71.8545468,14.8573585 C72.2956442,14.7099751 72.7918712,14.6362845 73.3432429,14.6362845 Z M69.7593449,21.1303338 C69.7593449,22.1804407 70.0625948,23.0186713 70.6691036,23.6450508 C71.2756125,24.2714303 72.0291425,24.5846154 72.9297162,24.5846154 C73.83029,24.5846154 74.5838199,24.2714303 75.1903288,23.6450508 C75.7968376,23.0186713 76.1000875,22.1804407 76.1000875,21.1303338 C76.1000875,20.080227 75.7968376,19.2419964 75.1903288,18.6156168 C74.5838199,17.9892373 73.83029,17.6760522 72.9297162,17.6760522 C72.0291425,17.6760522 71.2756125,17.9892373 70.6691036,18.6156168 C70.0625948,19.2419964 69.7593449,20.080227 69.7593449,21.1303338 Z M87.322432,14.6362845 C88.002457,14.6362845 88.6411197,14.7606374 89.238439,15.0093469 C89.8357583,15.2580564 90.3457694,15.6172981 90.7684877,16.0870827 C91.191206,16.5568674 91.5266188,17.1233639 91.774736,17.7865893 C92.0228533,18.4498146 92.14691,19.195932 92.14691,20.0249637 L92.14691,27.4862119 L88.9765387,27.4862119 L88.9765387,20.4394775 C88.9765387,19.6104458 88.7330199,18.9426247 88.2459749,18.4359942 C87.7589299,17.9293637 87.1294567,17.6760522 86.3575364,17.6760522 C85.585616,17.6760522 84.9561428,17.9293637 84.4690978,18.4359942 C83.9820528,18.9426247 83.738534,19.6104458 83.738534,20.4394775 L83.738534,27.4862119 L80.5681627,27.4862119 L80.5681627,10.0766328 L83.738534,10.0766328 L83.738534,16.0179971 C83.9774617,15.7600761 84.2623328,15.529793 84.5931558,15.3271408 C84.8872207,15.1613344 85.259391,15.0047419 85.7096779,14.8573585 C86.1599647,14.7099751 86.6975441,14.6362845 87.322432,14.6362845 Z M96.477143,21.1303338 C96.477143,22.1804407 96.7803929,23.0186713 97.3869017,23.6450508 C97.9934105,24.2714303 98.7469405,24.5846154 99.6475143,24.5846154 C100.548088,24.5846154 101.301618,24.2714303 101.908127,23.6450508 C102.514636,23.0186713 102.817886,22.1804407 102.817886,21.1303338 C102.817886,20.080227 102.514636,19.2419964 101.908127,18.6156168 C101.301618,17.9892373 100.548088,17.6760522 99.6475143,17.6760522 C98.7469405,17.6760522 97.9934105,17.9892373 97.3869017,18.6156168 C96.7803929,19.2419964 96.477143,20.080227 96.477143,21.1303338 Z M105.988257,21.1303338 C105.988257,22.0330572 105.818253,22.8758935 105.478241,23.6588679 C105.138228,24.4418423 104.678759,25.1280861 104.099818,25.7176197 C103.520878,26.3071534 102.850053,26.7723253 102.087322,27.1131495 C101.324591,27.4539736 100.51133,27.6243832 99.6475143,27.6243832 C98.7836986,27.6243832 97.9704376,27.4539736 97.2077068,27.1131495 C96.444976,26.7723253 95.7741505,26.3071534 95.1952102,25.7176197 C94.61627,25.1280861 94.1568005,24.4418423 93.8167879,23.6588679 C93.4767754,22.8758935 93.3067717,22.0330572 93.3067717,21.1303338 C93.3067717,20.2276104 93.4767754,19.3847741 93.8167879,18.6017997 C94.1568005,17.8188253 94.61627,17.1325816 95.1952102,16.5430479 C95.7741505,15.9535142 96.444976,15.4883423 97.2077068,15.1475181 C97.9704376,14.806694 98.7836986,14.6362845 99.6475143,14.6362845 C100.51133,14.6362845 101.324591,14.806694 102.087322,15.1475181 C102.850053,15.4883423 103.520878,15.9535142 104.099818,16.5430479 C104.678759,17.1325816 105.138228,17.8188253 105.478241,18.6017997 C105.818253,19.3847741 105.988257,20.2276104 105.988257,21.1303338 Z M113.764546,14.6362845 C114.518087,14.6362845 115.207291,14.7606374 115.832179,15.0093469 C116.457067,15.2580564 116.994646,15.6172981 117.444933,16.0870827 C117.89522,16.5568674 118.244417,17.1233639 118.492534,17.7865893 C118.740651,18.4498146 118.864708,19.195932 118.864708,20.0249637 L118.864708,27.4862119 L115.694337,27.4862119 L115.694337,20.4394775 C115.694337,19.6104458 115.450818,18.9426247 114.963773,18.4359942 C114.476728,17.9293637 113.847255,17.6760522 113.075334,17.6760522 C112.303414,17.6760522 111.673941,17.9293637 111.186896,18.4359942 C110.699851,18.9426247 110.456332,19.6104458 110.456332,20.4394775 L110.456332,27.4862119 L107.285961,27.4862119 L107.285961,14.7744557 L110.180648,14.7744557 L110.180648,16.0179971 C110.493092,15.7600761 110.833099,15.529793 111.20068,15.3271408 C111.513124,15.1613344 111.885294,15.0047419 112.317202,14.8573585 C112.74911,14.7099751 113.231553,14.6362845 113.764546,14.6362845 Z M133.257424,24.3082729 L133.257424,27.4862119 L120.989465,27.4862119 L120.989465,10.0766328 L132.981739,10.0766328 L132.981739,13.2545718 L124.297679,13.2545718 L124.297679,16.9851959 L132.292528,16.9851959 L132.292528,20.163135 L124.297679,20.163135 L124.297679,24.3082729 L133.257424,24.3082729 Z M145.002575,10.0766328 L148.724316,10.0766328 L143.348469,18.6432511 L149,27.4862119 L145.27826,27.4862119 L141.418677,21.1579681 L137.559095,27.4862119 L133.837355,27.4862119 L139.488886,18.6432511 L134.113039,10.0766328 L137.834779,10.0766328 L141.418677,16.1561684 L145.002575,10.0766328 Z" id="SophonEX" fill="#FFFFFF"></path>
                        <g id="logo" transform="translate(14.638596, 16.951567) scale(-1, 1) translate(-14.638596, -16.951567) " fill-rule="nonzero">
                            <path d="M8.95649782,16.0995528 C7.05239546,17.9745268 7.05239546,21.0024223 8.95649782,22.8773962 L11.155524,25.0427823 C13.075834,26.933716 16.2013589,26.933716 18.121669,25.0427823 L20.3206952,22.8773962 C22.2247975,21.0024223 22.2247975,17.9745268 20.3206952,16.0995528 L14.6385965,10.5043773 L8.95649782,16.0995528 Z M14.6385965,0 L25.6337272,10.8269303 C30.4916816,15.6105691 30.4916816,23.36638 25.6337272,28.1500188 L23.434701,30.3154048 C18.5767466,35.0990436 10.7004463,35.0990436 5.84249194,30.3154048 L3.6434658,28.1500188 C-1.2144886,23.36638 -1.2144886,15.6105691 3.6434658,10.8269303 L14.6385965,0 Z" id="Rectangle" fill="#36D58F"></path>
                            <path d="M8.49345131,16.5851403 L0.912985422,24.0998181 C-0.781952627,19.9844044 -0.116928304,15.1431671 2.90805839,11.5973204 L14.6069088,-1.85949034e-10 L19.452557,4.78494214 L19.9247563,5.25304343 L14.6172252,10.5145124 L14.5974643,10.4949991 L8.93133145,16.0901469 C8.77200156,16.2474807 8.62604152,16.4129327 8.49345131,16.5851403 Z" id="Combined-Shape" fill="#3BDD96" opacity="0.598958333"></path>
                            <path d="M8.63695603,22.4898796 C8.71779225,22.5842623 8.80284371,22.6762934 8.89211041,22.7657277 L11.0753279,24.9530447 C11.1378458,25.0156799 11.2016503,25.0762612 11.266657,25.1347886 L19.1114998,33.0249995 C14.7860836,34.7517223 9.6832953,33.9319335 6.09601829,30.5656331 L3.19772907,27.6505826 C-0.063055091,24.0507729 -0.830027264,18.9913957 0.896812552,14.7049735 L8.63695603,22.4898796 Z" id="Combined-Shape" fill="#41E29B" opacity="0.598958333"></path>
                            <path d="M28.3866064,14.704975 C30.177448,19.1699906 29.2674458,24.4688334 25.6565999,28.0864436 L23.4713786,30.2757584 C19.8742321,33.8796434 14.6117055,34.7981184 10.1656917,33.0311836 L28.3866064,14.704975 Z" id="Combined-Shape" fill="#47E9A2" opacity="0.598958333"></path>
                            <path d="M20.6525549,16.4537457 C20.5525434,16.3339385 20.4457484,16.2177555 20.3321698,16.1056881 L14.6573508,10.5063767 L14.6528615,10.5108062 L9.35243665,5.26052051 L14.6631938,-1.28785871e-13 L17.6610303,2.95794812 L26.1659469,11.3824128 C29.3591144,14.9432225 30.0943474,19.8973709 28.371646,24.0998184 L20.6525549,16.4537457 Z" id="Combined-Shape" fill="#4EF0A9" opacity="0.598958333"></path>
                        </g>
                    </g>
                </g>
            </g>
        </g>
    </g>
</svg>