<?xml version="1.0" encoding="UTF-8"?>
<svg width="140px" height="32px" viewBox="0 0 140 32" version="1.1" xmlns="http://www.w3.org/2000/svg" xmlns:xlink="http://www.w3.org/1999/xlink">
    <!-- Generator: Sketch 52 (66869) - http://www.bohemiancoding.com/sketch -->
    <title>LOGO</title>
    <desc>Created with Sketch.</desc>
    <g id="Page-1" stroke="none" stroke-width="1" fill="none" fill-rule="evenodd">
        <g id="white1" transform="translate(-304.000000, -25.000000)">
            <g id="navigation">
                <g id="LOGO" transform="translate(304.000000, 25.000000)">
                    <path d="M37.1018032,14.0614224 C37.1018032,13.4372102 37.2361065,12.8390159 37.5047171,12.2668215 C37.7733278,11.694627 38.1545758,11.1961318 38.6484728,10.7713208 C39.1423697,10.3465097 39.740236,10.0040652 40.4420896,9.74397678 C41.1439432,9.48388839 41.9367658,9.35384615 42.8205814,9.35384615 C43.6350782,9.35384615 44.3759125,9.48388839 45.0431066,9.74397678 C45.7103007,10.0040652 46.2865052,10.3681834 46.7717373,10.8363425 C47.2569694,11.3045016 47.6295527,11.8550138 47.8894985,12.4878955 C48.1494443,13.1207772 48.2794152,13.8100011 48.2794152,14.5555878 L45.2900539,14.5555878 C45.2900539,13.8273403 45.0734356,13.2551545 44.6401927,12.8390131 C44.2069498,12.4228716 43.6004187,12.2148041 42.8205814,12.2148041 C42.0407442,12.2148041 41.4342131,12.4055327 41.0009702,12.7869956 C40.5677273,13.1684586 40.351109,13.5845938 40.351109,14.0354136 C40.351109,14.520912 40.5590625,14.8936997 40.9749757,15.1537881 C41.390889,15.4138765 41.9107727,15.6479525 42.5346425,15.8560232 C43.1585124,16.0640939 43.8386936,16.280831 44.5752066,16.5062409 C45.3117196,16.7316509 45.9919008,17.0350828 46.6157706,17.4165457 C47.2396405,17.7980087 47.7595242,18.2965039 48.1754374,18.9120464 C48.5913506,19.527589 48.7993041,20.3295161 48.7993041,21.317852 C48.7993041,21.9073856 48.6563361,22.4795715 48.3703958,23.0344267 C48.0844554,23.5892819 47.6815455,24.0877772 47.161654,24.5299274 C46.6417625,24.9720777 46.0135696,25.3275265 45.2770566,25.5962845 C44.5405436,25.8650425 43.7217268,25.9994194 42.8205814,25.9994194 C41.9021064,25.9994194 41.0832895,25.8693772 40.3641063,25.6092888 C39.644923,25.3492004 39.0340596,24.9807474 38.5314978,24.5039187 C38.028936,24.02709 37.6433555,23.4635736 37.3747449,22.8133527 C37.1061343,22.1631317 36.971831,21.4478994 36.971831,20.6676343 L40.0911646,20.6676343 C40.0911646,21.3958817 40.333777,21.9897413 40.8190091,22.4492308 C41.3042412,22.9087202 41.9714253,23.1384615 42.8205814,23.1384615 C43.7390565,23.1384615 44.4235701,22.9433982 44.8741427,22.5532656 C45.3247154,22.163133 45.5499983,21.7079852 45.5499983,21.1878084 C45.5499983,20.6849709 45.3420448,20.2948442 44.9261316,20.0174165 C44.5102184,19.7399889 43.9903347,19.4929087 43.3664648,19.2761684 C42.742595,19.059428 42.0624138,18.8470257 41.3259008,18.638955 C40.5893878,18.4308843 39.9092066,18.1447914 39.2853367,17.7806676 C38.6614669,17.4165439 38.1415832,16.9440571 37.7256699,16.363193 C37.3097567,15.782329 37.1018032,15.0150798 37.1018032,14.0614224 Z M52.8553745,19.887373 C52.8553745,20.8757089 53.1413106,21.6646318 53.7131913,22.2541655 C54.2850719,22.8436991 54.9955797,23.1384615 55.8447359,23.1384615 C56.693892,23.1384615 57.4043998,22.8436991 57.9762805,22.2541655 C58.5481612,21.6646318 58.8340972,20.8757089 58.8340972,19.887373 C58.8340972,18.8990371 58.5481612,18.1101142 57.9762805,17.5205806 C57.4043998,16.9310469 56.693892,16.6362845 55.8447359,16.6362845 C54.9955797,16.6362845 54.2850719,16.9310469 53.7131913,17.5205806 C53.1413106,18.1101142 52.8553745,18.8990371 52.8553745,19.887373 Z M61.8234586,19.887373 C61.8234586,20.7369951 61.6631611,21.5302527 61.3425613,22.2671698 C61.0219615,23.0040869 60.5887251,23.6499634 60.042839,24.2048186 C59.4969529,24.7596738 58.8644277,25.1974827 58.1452444,25.5182583 C57.4260611,25.839034 56.6592326,25.9994194 55.8447359,25.9994194 C55.0302391,25.9994194 54.2634106,25.839034 53.5442274,25.5182583 C52.8250441,25.1974827 52.1925189,24.7596738 51.6466328,24.2048186 C51.1007467,23.6499634 50.6675102,23.0040869 50.3469104,22.2671698 C50.0263107,21.5302527 49.8660132,20.7369951 49.8660132,19.887373 C49.8660132,19.037751 50.0263107,18.2444933 50.3469104,17.5075762 C50.6675102,16.7706591 51.1007467,16.1247826 51.6466328,15.5699274 C52.1925189,15.0150722 52.8250441,14.5772633 53.5442274,14.2564877 C54.2634106,13.935712 55.0302391,13.7753266 55.8447359,13.7753266 C56.6592326,13.7753266 57.4260611,13.935712 58.1452444,14.2564877 C58.8644277,14.5772633 59.4969529,15.0150722 60.042839,15.5699274 C60.5887251,16.1247826 61.0219615,16.7706591 61.3425613,17.5075762 C61.6631611,18.2444933 61.8234586,19.037751 61.8234586,19.887373 Z M69.1557659,13.7753266 C69.9009438,13.7753266 70.6114516,13.9270425 71.2873106,14.230479 C71.9631695,14.5339154 72.5567035,14.9587201 73.0679301,15.5049057 C73.5791568,16.0510913 73.9863991,16.6969677 74.2896691,17.4425544 C74.5929392,18.1881411 74.7445719,19.0030725 74.7445719,19.887373 C74.7445719,20.7716735 74.5929392,21.5866049 74.2896691,22.3321916 C73.9863991,23.0777783 73.5791568,23.7236547 73.0679301,24.2698403 C72.5567035,24.816026 71.9631695,25.2408306 71.2873106,25.5442671 C70.6114516,25.8477035 69.9009438,25.9994194 69.1557659,25.9994194 C68.6532041,25.9994194 68.2156353,25.9387331 67.8430464,25.8173585 C67.4704575,25.6959839 67.1455301,25.5659417 66.8682547,25.4272279 C66.5563197,25.2538356 66.2790484,25.0544375 66.0364324,24.8290276 L66.0364324,30.0307692 L63.047071,30.0307692 L63.047071,13.9053701 L65.7764879,13.9053701 L65.7764879,15.075762 C66.0364337,14.8330128 66.3396992,14.6162757 66.6862935,14.4255443 C66.9808987,14.2694912 67.3361526,14.12211 67.7520658,13.9833962 C68.1679791,13.8446824 68.6358744,13.7753266 69.1557659,13.7753266 Z M65.7764879,19.887373 C65.7764879,20.8757089 66.062424,21.6646318 66.6343046,22.2541655 C67.2061853,22.8436991 67.9166931,23.1384615 68.7658493,23.1384615 C69.6150054,23.1384615 70.3255132,22.8436991 70.8973939,22.2541655 C71.4692745,21.6646318 71.7552106,20.8757089 71.7552106,19.887373 C71.7552106,18.8990371 71.4692745,18.1101142 70.8973939,17.5205806 C70.3255132,16.9310469 69.6150054,16.6362845 68.7658493,16.6362845 C67.9166931,16.6362845 67.2061853,16.9310469 66.6343046,17.5205806 C66.062424,18.1101142 65.7764879,18.8990371 65.7764879,19.887373 Z M82.3368238,13.7753266 C82.9780233,13.7753266 83.580222,13.8923646 84.1434378,14.1264441 C84.7066536,14.3605237 85.1875461,14.6986335 85.5861296,15.1407837 C85.9847131,15.582934 86.3009757,16.1161072 86.5349269,16.7403193 C86.7688781,17.3645314 86.8858519,18.0667595 86.8858519,18.8470247 L86.8858519,25.8693759 L83.8964906,25.8693759 L83.8964906,19.2371553 C83.8964906,18.4568901 83.6668753,17.8283527 83.2076378,17.3515239 C82.7484002,16.8746952 82.1548663,16.6362845 81.4270182,16.6362845 C80.69917,16.6362845 80.1056361,16.8746952 79.6463986,17.3515239 C79.1871611,17.8283527 78.9575457,18.4568901 78.9575457,19.2371553 L78.9575457,25.8693759 L75.9681844,25.8693759 L75.9681844,9.4838897 L78.9575457,9.4838897 L78.9575457,15.075762 C79.1828321,14.8330128 79.4514387,14.6162757 79.7633736,14.4255443 C80.0406491,14.2694912 80.3915706,14.12211 80.8161487,13.9833962 C81.2407268,13.8446824 81.7476134,13.7753266 82.3368238,13.7753266 Z M90.9688535,19.887373 C90.9688535,20.8757089 91.2547896,21.6646318 91.8266702,22.2541655 C92.3985509,22.8436991 93.1090587,23.1384615 93.9582148,23.1384615 C94.807371,23.1384615 95.5178788,22.8436991 96.0897595,22.2541655 C96.6616401,21.6646318 96.9475762,20.8757089 96.9475762,19.887373 C96.9475762,18.8990371 96.6616401,18.1101142 96.0897595,17.5205806 C95.5178788,16.9310469 94.807371,16.6362845 93.9582148,16.6362845 C93.1090587,16.6362845 92.3985509,16.9310469 91.8266702,17.5205806 C91.2547896,18.1101142 90.9688535,18.8990371 90.9688535,19.887373 Z M99.9369375,19.887373 C99.9369375,20.7369951 99.7766401,21.5302527 99.4560403,22.2671698 C99.1354405,23.0040869 98.7022041,23.6499634 98.156318,24.2048186 C97.6104318,24.7596738 96.9779066,25.1974827 96.2587234,25.5182583 C95.5395401,25.839034 94.7727116,25.9994194 93.9582148,25.9994194 C93.1437181,25.9994194 92.3768896,25.839034 91.6577063,25.5182583 C90.9385231,25.1974827 90.3059978,24.7596738 89.7601117,24.2048186 C89.2142256,23.6499634 88.7809892,23.0040869 88.4603894,22.2671698 C88.1397896,21.5302527 87.9794922,20.7369951 87.9794922,19.887373 C87.9794922,19.037751 88.1397896,18.2444933 88.4603894,17.5075762 C88.7809892,16.7706591 89.2142256,16.1247826 89.7601117,15.5699274 C90.3059978,15.0150722 90.9385231,14.5772633 91.6577063,14.2564877 C92.3768896,13.935712 93.1437181,13.7753266 93.9582148,13.7753266 C94.7727116,13.7753266 95.5395401,13.935712 96.2587234,14.2564877 C96.9779066,14.5772633 97.6104318,15.0150722 98.156318,15.5699274 C98.7022041,16.1247826 99.1354405,16.7706591 99.4560403,17.5075762 C99.7766401,18.2444933 99.9369375,19.037751 99.9369375,19.887373 Z M107.269245,13.7753266 C107.979763,13.7753266 108.629618,13.8923646 109.218828,14.1264441 C109.808039,14.3605237 110.314925,14.6986335 110.739504,15.1407837 C111.164082,15.582934 111.493341,16.1161072 111.727292,16.7403193 C111.961244,17.3645314 112.078218,18.0667595 112.078218,18.8470247 L112.078218,25.8693759 L109.088856,25.8693759 L109.088856,19.2371553 C109.088856,18.4568901 108.859241,17.8283527 108.400003,17.3515239 C107.940766,16.8746952 107.347232,16.6362845 106.619384,16.6362845 C105.891536,16.6362845 105.298002,16.8746952 104.838764,17.3515239 C104.379527,17.8283527 104.149911,18.4568901 104.149911,19.2371553 L104.149911,25.8693759 L101.16055,25.8693759 L101.16055,13.9053701 L103.889967,13.9053701 L103.889967,15.075762 C104.184572,14.8330128 104.505167,14.6162757 104.851761,14.4255443 C105.146367,14.2694912 105.497288,14.12211 105.904536,13.9833962 C106.311785,13.8446824 106.766683,13.7753266 107.269245,13.7753266 Z M125.156234,22.8783745 L125.156234,25.8693759 L113.588706,25.8693759 L113.588706,9.4838897 L124.89629,9.4838897 L124.89629,12.4748911 L116.708039,12.4748911 L116.708039,15.9860668 L124.246429,15.9860668 L124.246429,18.9770682 L116.708039,18.9770682 L116.708039,22.8783745 L125.156234,22.8783745 Z M136.230805,9.4838897 L139.740056,9.4838897 L134.671138,17.5465893 L140,25.8693759 L136.49075,25.8693759 L132.851527,19.9133817 L129.212305,25.8693759 L125.703054,25.8693759 L131.031916,17.5465893 L125.962999,9.4838897 L129.472249,9.4838897 L132.851527,15.2058055 L136.230805,9.4838897 Z" id="SophonEX" fill="#000000"></path>
                    <g id="logo" transform="translate(13.802817, 15.954416) scale(-1, 1) translate(-13.802817, -15.954416) " fill-rule="nonzero">
                        <path d="M8.44513335,15.1525203 C6.64974428,16.9172017 6.64974428,19.7669857 8.44513335,21.531667 L10.5186078,23.5696774 C12.3292792,25.3493798 15.2763546,25.3493798 17.087026,23.5696774 L19.1605005,21.531667 C20.9558895,19.7669857 20.9558895,16.9172017 19.1605005,15.1525203 L13.8028169,9.88647276 L8.44513335,15.1525203 Z M13.8028169,0 L24.1701889,10.190052 C28.7507821,14.6923003 28.7507821,21.991887 24.1701889,26.4941353 L22.0967145,28.5321457 C17.5161213,33.034394 10.0895125,33.034394 5.50891928,28.5321457 L3.43544488,26.4941353 C-1.14514829,21.991887 -1.14514829,14.6923003 3.43544488,10.190052 L13.8028169,0 Z" id="Rectangle" fill="#36D58F"></path>
                        <path d="M8.00852414,15.6095438 L0.86085921,22.6821817 C-0.737307634,18.8088512 -0.11025237,14.2523926 2.742025,10.915125 L13.7729384,-5.75539616e-13 L18.3419281,4.50347504 L18.7871674,4.94404088 L13.7826658,9.8960117 L13.7640331,9.87764622 L8.42140384,15.1436677 C8.27117077,15.2917466 8.13354421,15.447466 8.00852414,15.6095438 Z" id="Combined-Shape" fill="#3BDD96" opacity="0.598958333"></path>
                        <path d="M8.14383556,21.1669455 C8.2200565,21.2557762 8.30025201,21.3423938 8.38442209,21.4265672 L10.4429905,23.4852185 C10.5019389,23.5441693 10.5621005,23.601187 10.6233958,23.6562716 L18.0203432,31.0823524 C13.9418833,32.7075033 9.1304349,31.9359374 5.74797075,28.7676547 L3.01515714,26.0240777 C-0.0594550106,22.6360215 -0.782637484,17.8742548 0.845609717,13.839975 L8.14383556,21.1669455 Z" id="Combined-Shape" fill="#41E29B" opacity="0.598958333"></path>
                        <path d="M26.7658946,13.8399764 C28.4544894,18.0423441 27.5964431,23.0294903 24.1917557,26.4342998 L22.131298,28.4948314 C18.7395279,31.8867232 13.7774612,32.7511703 9.58528922,31.0881728 L26.7658946,13.8399764 Z" id="Combined-Shape" fill="#47E9A2" opacity="0.598958333"></path>
                        <path d="M19.4734122,15.4858775 C19.379111,15.3731181 19.2784136,15.2637696 19.17132,15.1582947 L13.8205005,9.88835455 L13.8162676,9.89252344 L8.81846635,4.95107793 L13.8260099,-2.43360887e-13 L16.6526872,2.78395123 L24.672022,10.7128591 C27.6828779,14.0642094 28.3761334,18.7269372 26.7517884,22.682182 L19.4734122,15.4858775 Z" id="Combined-Shape" fill="#4EF0A9" opacity="0.598958333"></path>
                    </g>
                </g>
            </g>
        </g>
    </g>
</svg>